# File created by Blade
# Date/Time:  Tue Jan 27 20:12:02 2015
# Frame Rate: 120.000 fps
#------------------------------------------------------
:FULLY-SPECIFIED
:DEGREES
2130
root 8.585010 32.246036 -3.560483 0.631390 -11.129070 -2.064534
Spine 2.130411 11.755838 -2.642897
Head 19.804144 -8.462957 3.514290
LeftShoulder -16.851452 2.141364 28.809929
LeftArm -18.806552 -38.433115 -65.752407
LeftForeArm -4.284514 -0.000000 96.138202
LeftHand 16.849239 -0.000000 7.511800
LeftHandThumb1 -26.253704 0.000000 33.147579
RightShoulder -19.845792 -23.416616 -22.856716
RightArm 10.567797 -40.768839 88.812747
RightForeArm -23.932490 0.000000 103.058707
RightHand 18.579103 -0.000000 1.136340
RightHandThumb1 -24.326973 -0.000000 -32.862282
LeftUpLeg 7.058040 6.599906 -7.118824
LeftLeg -4.806826 -0.000000 0.000000
LeftFoot -16.658485 18.155665 -16.866891
LeftToeBase 24.088675 -0.000000 -0.000000
RightUpLeg 6.938014 -54.959485 -17.860219
RightLeg 55.658169 -0.000000 -0.000000
RightFoot -8.074357 -16.266676 34.423512
RightToeBase 16.414810 -0.000000 -0.000000
2131
root 8.592731 32.241818 -3.554457 0.594559 -11.145595 -2.030607
Spine 2.163597 11.726939 -2.663888
Head 19.840398 -8.461503 3.480770
LeftShoulder -16.861098 2.174879 28.784866
LeftArm -18.828907 -38.493559 -65.695632
LeftForeArm -4.338096 -0.000000 96.120189
LeftHand 16.944313 -0.000000 7.487110
LeftHandThumb1 -26.253704 0.000000 33.147579
RightShoulder -19.817500 -23.401101 -22.888768
RightArm 10.571340 -40.774860 88.819869
RightForeArm -23.920261 0.000000 103.089689
RightHand 18.564797 -0.000000 1.137507
RightHandThumb1 -24.326973 -0.000000 -32.862282
LeftUpLeg 7.100944 6.586598 -7.163423
LeftLeg -4.808977 -0.000000 0.000000
LeftFoot -16.671872 18.146699 -16.945927
LeftToeBase 23.946199 -0.000000 -0.000000
RightUpLeg 7.000709 -55.233730 -17.976525
RightLeg 55.094543 -0.000000 -0.000000
RightFoot -8.307321 -16.040784 34.188445
RightToeBase 16.117535 -0.000000 -0.000000
2132
root 8.597605 32.237079 -3.550062 0.562038 -11.155124 -2.026889
Spine 2.195173 11.696872 -2.640077
Head 19.879744 -8.534946 3.408171
LeftShoulder -16.847441 2.173735 28.751379
LeftArm -18.889457 -38.535662 -65.598696
LeftForeArm -4.385303 -0.000000 96.109847
LeftHand 16.854311 -0.000000 7.471853
LeftHandThumb1 -26.253704 0.000000 33.147579
RightShoulder -19.776941 -23.404125 -22.943647
RightArm 10.566436 -40.764006 88.863434
RightForeArm -23.912645 -0.000000 103.115285
RightHand 18.570679 -0.000000 1.128877
RightHandThumb1 -24.326973 -0.000000 -32.862282
LeftUpLeg 7.145085 6.634461 -7.178640
LeftLeg -4.825763 -0.000000 0.000000
LeftFoot -16.670599 18.176197 -16.792585
LeftToeBase 24.055408 -0.000000 -0.000000
RightUpLeg 7.022686 -55.462132 -18.019461
RightLeg 54.594562 -0.000000 -0.000000
RightFoot -8.674670 -15.808077 34.260435
RightToeBase 16.580356 -0.000000 -0.000000
2133
root 8.607700 32.233005 -3.545896 0.531331 -11.180856 -1.978898
Spine 2.225248 11.679593 -2.667031
Head 19.900078 -8.529166 3.352565
LeftShoulder -16.864686 2.201172 28.698317
LeftArm -18.873193 -38.544015 -65.541596
LeftForeArm -4.428729 -0.000000 96.108457
LeftHand 16.872310 -0.000000 7.446211
LeftHandThumb1 -26.253704 0.000000 33.147579
RightShoulder -19.763488 -23.406523 -22.971303
RightArm 10.586828 -40.757170 88.872268
RightForeArm -23.930941 -0.000000 103.131056
RightHand 18.573165 0.000000 1.129714
RightHandThumb1 -24.326973 -0.000000 -32.862282
LeftUpLeg 7.164128 6.613977 -7.237500
LeftLeg -4.809549 -0.000000 0.000000
LeftFoot -16.691522 18.171668 -16.850029
LeftToeBase 24.019074 -0.000000 -0.000000
RightUpLeg 6.970988 -55.669099 -18.067153
RightLeg 54.196047 -0.000000 -0.000000
RightFoot -8.935831 -15.703765 34.120852
RightToeBase 16.082763 -0.000000 -0.000000
2134
root 8.611662 32.228937 -3.542701 0.519167 -11.188479 -1.977088
Spine 2.236946 11.659658 -2.661631
Head 19.929558 -8.500297 3.320520
LeftShoulder -16.867652 2.220946 28.665791
LeftArm -18.853452 -38.525083 -65.500523
LeftForeArm -4.438317 0.000000 96.108213
LeftHand 16.870530 0.000000 7.512843
LeftHandThumb1 -26.253704 0.000000 33.147579
RightShoulder -19.762006 -23.406257 -22.987522
RightArm 10.583221 -40.750523 88.893159
RightForeArm -23.897581 0.000000 103.148473
RightHand 18.568928 -0.000000 1.119637
RightHandThumb1 -24.326973 -0.000000 -32.862282
LeftUpLeg 7.181979 6.625176 -7.258602
LeftLeg -4.809642 -0.000000 0.000000
LeftFoot -16.709905 18.215049 -16.808625
LeftToeBase 23.896743 -0.000000 -0.000000
RightUpLeg 6.914743 -55.874459 -18.041985
RightLeg 53.820909 -0.000000 -0.000000
RightFoot -9.159834 -15.636440 34.063000
RightToeBase 16.093629 -0.000000 -0.000000
2135
root 8.618101 32.225611 -3.542074 0.526645 -11.220302 -1.950843
Spine 2.221084 11.668720 -2.686252
Head 19.955935 -8.521545 3.283326
LeftShoulder -16.867109 2.205555 28.640575
LeftArm -18.855237 -38.472246 -65.445460
LeftForeArm -4.423818 -0.000000 96.115191
LeftHand 16.844703 -0.000000 7.556793
LeftHandThumb1 -26.253704 0.000000 33.147579
RightShoulder -19.751026 -23.385228 -23.011355
RightArm 10.545565 -40.746766 88.938659
RightForeArm -23.931149 -0.000000 103.158254
RightHand 18.555207 -0.000000 1.119219
RightHandThumb1 -24.326973 -0.000000 -32.862282
LeftUpLeg 7.160987 6.628175 -7.295343
LeftLeg -4.797291 -0.000000 0.000000
LeftFoot -16.739372 18.235054 -16.763914
LeftToeBase 24.044189 -0.000000 -0.000000
RightUpLeg 6.711888 -55.994684 -17.920190
RightLeg 53.554498 -0.000000 -0.000000
RightFoot -9.574127 -15.563950 34.408301
RightToeBase 16.891051 -0.000000 -0.000000
2136
root 8.628226 32.222402 -3.537578 0.512855 -11.247076 -1.911332
Spine 2.215905 11.669548 -2.709666
Head 20.001086 -8.517123 3.234527
LeftShoulder -16.867016 2.234098 28.615963
LeftArm -18.816586 -38.420219 -65.449478
LeftForeArm -4.404695 -0.000000 96.118750
LeftHand 16.863516 0.000000 7.600517
LeftHandThumb1 -26.253704 0.000000 33.147579
RightShoulder -19.748502 -23.402675 -23.028263
RightArm 10.568238 -40.743535 88.932381
RightForeArm -23.936428 -0.000000 103.154752
RightHand 18.532565 -0.000000 1.136328
RightHandThumb1 -24.326973 -0.000000 -32.862282
LeftUpLeg 7.173384 6.552539 -7.349108
LeftLeg -4.795436 -0.000000 0.000000
LeftFoot -16.752177 18.250743 -16.863935
LeftToeBase 23.998622 -0.000000 -0.000000
RightUpLeg 6.561094 -56.153149 -17.896491
RightLeg 53.349646 -0.000000 -0.000000
RightFoot -9.571481 -15.654996 34.127523
RightToeBase 16.480968 -0.000000 -0.000000
2137
root 8.635629 32.219197 -3.532430 0.491295 -11.275404 -1.900873
Spine 2.223211 11.679020 -2.704113
Head 20.035854 -8.501755 3.205248
LeftShoulder -16.859924 2.241849 28.616397
LeftArm -18.802526 -38.353848 -65.461258
LeftForeArm -4.410714 -0.000000 96.125718
LeftHand 16.896539 -0.000000 7.495609
LeftHandThumb1 -26.253704 0.000000 33.147579
RightShoulder -19.745756 -23.413173 -23.046224
RightArm 10.568610 -40.733140 88.938038
RightForeArm -23.923815 0.000000 103.142530
RightHand 18.560102 -0.000000 1.113602
RightHandThumb1 -24.326973 -0.000000 -32.862282
LeftUpLeg 7.209838 6.576396 -7.373105
LeftLeg -4.812134 -0.000000 0.000000
LeftFoot -16.776412 18.255012 -16.850345
LeftToeBase 24.085397 -0.000000 -0.000000
RightUpLeg 6.411305 -56.275190 -17.838440
RightLeg 53.193904 -0.000000 -0.000000
RightFoot -9.606688 -15.766789 34.059359
RightToeBase 16.683841 -0.000000 -0.000000
2138
root 8.641409 32.216387 -3.525934 0.468586 -11.310689 -1.905813
Spine 2.230134 11.695731 -2.680364
Head 20.076822 -8.482094 3.166638
LeftShoulder -16.846827 2.248386 28.621894
LeftArm -18.791054 -38.290954 -65.484441
LeftForeArm -4.424521 -0.000000 96.115189
LeftHand 16.970253 -0.000000 7.344619
LeftHandThumb1 -26.253704 0.000000 33.147579
RightShoulder -19.755157 -23.410337 -23.068111
RightArm 10.565132 -40.737830 88.940331
RightForeArm -23.923466 -0.000000 103.126135
RightHand 18.549865 0.000000 1.119580
RightHandThumb1 -24.326973 -0.000000 -32.862282
LeftUpLeg 7.247102 6.575167 -7.389907
LeftLeg -4.821188 -0.000000 0.000000
LeftFoot -16.786311 18.343919 -16.766298
LeftToeBase 24.016856 -0.000000 -0.000000
RightUpLeg 6.284551 -56.353253 -17.761791
RightLeg 53.055105 -0.000000 -0.000000
RightFoot -9.608029 -15.865215 33.967017
RightToeBase 16.544762 -0.000000 -0.000000
2139
root 8.646077 32.215206 -3.519321 0.442551 -11.337104 -1.911947
Spine 2.239574 11.708851 -2.663295
Head 20.114553 -8.473265 3.148085
LeftShoulder -16.843876 2.261781 28.638828
LeftArm -18.738997 -38.220654 -65.550113
LeftForeArm -4.396477 -0.000000 96.105828
LeftHand 17.015912 -0.000000 7.350492
LeftHandThumb1 -26.253704 0.000000 33.147579
RightShoulder -19.759748 -23.396986 -23.071012
RightArm 10.541965 -40.728827 88.944412
RightForeArm -23.910731 -0.000000 103.111951
RightHand 18.586637 0.000000 1.203656
RightHandThumb1 -24.326973 -0.000000 -32.862282
LeftUpLeg 7.289792 6.556527 -7.393866
LeftLeg -4.830314 -0.000000 0.000000
LeftFoot -16.831011 18.367258 -16.820663
LeftToeBase 24.081301 -0.000000 -0.000000
RightUpLeg 6.173250 -56.442555 -17.701773
RightLeg 52.925901 -0.000000 -0.000000
RightFoot -9.644398 -16.003002 34.030343
RightToeBase 16.892861 -0.000000 -0.000000
2140
root 8.651970 32.213811 -3.513051 0.406858 -11.367054 -1.913343
Spine 2.258339 11.713624 -2.644149
Head 20.151311 -8.451935 3.128334
LeftShoulder -16.838537 2.269150 28.658490
LeftArm -18.692849 -38.161397 -65.620049
LeftForeArm -4.354846 -0.000000 96.090527
LeftHand 16.911162 -0.000000 7.454135
LeftHandThumb1 -26.253704 0.000000 33.147579
RightShoulder -19.754806 -23.405607 -23.077217
RightArm 10.570003 -40.737914 88.910497
RightForeArm -23.918620 -0.000000 103.096674
RightHand 18.559010 -0.000000 1.167180
RightHandThumb1 -24.326973 -0.000000 -32.862282
LeftUpLeg 7.332586 6.572566 -7.395727
LeftLeg -4.812627 -0.000000 0.000000
LeftFoot -16.850734 18.341217 -16.839027
LeftToeBase 23.995192 -0.000000 -0.000000
RightUpLeg 6.037782 -56.496048 -17.629350
RightLeg 52.847709 -0.000000 -0.000000
RightFoot -9.498440 -16.266449 33.715086
RightToeBase 16.571792 -0.000000 -0.000000
2141
root 8.658686 32.212884 -3.510736 0.409780 -11.424678 -1.898285
Spine 2.234569 11.750042 -2.660417
Head 20.172049 -8.431822 3.132148
LeftShoulder -16.830366 2.241234 28.698234
LeftArm -18.674251 -38.095331 -65.679499
LeftForeArm -4.331962 -0.000000 96.063249
LeftHand 16.929294 -0.000000 7.443980
LeftHandThumb1 -26.253704 0.000000 33.147579
RightShoulder -19.754890 -23.389781 -23.079737
RightArm 10.550807 -40.738671 88.919870
RightForeArm -23.917891 -0.000000 103.074924
RightHand 18.565009 -0.000000 1.144615
RightHandThumb1 -24.326973 -0.000000 -32.862282
LeftUpLeg 7.322475 6.594811 -7.429153
LeftLeg -4.805035 -0.000000 0.000000
LeftFoot -16.865049 18.396212 -16.829259
LeftToeBase 23.983577 -0.000000 -0.000000
RightUpLeg 5.729530 -56.466843 -17.418532
RightLeg 52.816504 -0.000000 -0.000000
RightFoot -9.463181 -16.522660 33.595702
RightToeBase 16.566020 -0.000000 -0.000000
2142
root 8.664227 32.211712 -3.503421 0.382415 -11.454973 -1.915159
Spine 2.240627 11.759356 -2.621929
Head 20.200071 -8.430134 3.116638
LeftShoulder -16.824320 2.242274 28.716168
LeftArm -18.620816 -38.035170 -65.760765
LeftForeArm -4.331578 -0.000000 96.042485
LeftHand 16.955695 0.000000 7.361603
LeftHandThumb1 -26.253704 0.000000 33.147579
RightShoulder -19.753394 -23.420994 -23.086544
RightArm 10.586411 -40.744693 88.877474
RightForeArm -23.916223 0.000000 103.061577
RightHand 18.570632 -0.000000 1.110591
RightHandThumb1 -24.326973 -0.000000 -32.862282
LeftUpLeg 7.413838 6.346240 -7.439086
LeftLeg -4.880330 -0.000000 0.000000
LeftFoot -16.853831 18.587407 -16.817190
LeftToeBase 23.819819 -0.000000 -0.000000
RightUpLeg 5.564596 -56.439157 -17.292279
RightLeg 52.769938 -0.000000 -0.000000
RightFoot -9.427292 -16.726533 33.593974
RightToeBase 16.755074 -0.000000 -0.000000
